<svg width="1280" height="640" viewBox="0 0 1280 640" fill="none" xmlns="http://www.w3.org/2000/svg">
  <rect width="1280" height="640" rx="32" fill="#F5F7FB"/>
  <path d="M0 96H1280" stroke="#D9E4F2" stroke-width="2"/>
  <path d="M0 192H1280" stroke="#D9E4F2" stroke-width="2"/>
  <path d="M0 288H1280" stroke="#D9E4F2" stroke-width="2"/>
  <path d="M0 384H1280" stroke="#D9E4F2" stroke-width="2"/>
  <path d="M0 480H1280" stroke="#D9E4F2" stroke-width="2"/>
  <path d="M0 576H1280" stroke="#D9E4F2" stroke-width="2"/>
  <path d="M128 0V640" stroke="#D9E4F2" stroke-width="2"/>
  <path d="M256 0V640" stroke="#D9E4F2" stroke-width="2"/>
  <path d="M384 0V640" stroke="#D9E4F2" stroke-width="2"/>
  <path d="M512 0V640" stroke="#D9E4F2" stroke-width="2"/>
  <path d="M640 0V640" stroke="#D9E4F2" stroke-width="2"/>
  <path d="M768 0V640" stroke="#D9E4F2" stroke-width="2"/>
  <path d="M896 0V640" stroke="#D9E4F2" stroke-width="2"/>
  <path d="M1024 0V640" stroke="#D9E4F2" stroke-width="2"/>
  <path d="M1152 0V640" stroke="#D9E4F2" stroke-width="2"/>
  <rect x="104" y="92" width="484" height="456" rx="28" fill="#FFFFFF" stroke="#17324D" stroke-width="12"/>
  <path d="M488 92H588V192" fill="#DCE6F7"/>
  <path d="M488 92L588 192" stroke="#17324D" stroke-width="12" stroke-linecap="round" stroke-linejoin="round"/>
  <rect x="156" y="170" width="236" height="22" rx="11" fill="#17324D"/>
  <rect x="156" y="214" width="188" height="16" rx="8" fill="#4C7CBF"/>
  <rect x="156" y="278" width="336" height="18" rx="9" fill="#17324D"/>
  <rect x="156" y="322" width="284" height="16" rx="8" fill="#7D9CCB"/>
  <rect x="156" y="366" width="304" height="16" rx="8" fill="#7D9CCB"/>
  <circle cx="182" cy="448" r="14" fill="#0F9D8D"/>
  <rect x="210" y="438" width="198" height="20" rx="10" fill="#17324D"/>
  <circle cx="182" cy="496" r="14" fill="#0F9D8D"/>
  <rect x="210" y="486" width="156" height="20" rx="10" fill="#17324D"/>
  <path d="M624 338L788 244C802.095 235.915 819.294 235.021 834.16 241.592L1058.21 340.628C1074.93 348.014 1085.2 365.095 1083.81 383.315L1072.26 534.737C1071.08 550.278 1061.72 564.029 1047.72 571.267L883.475 656.138C868.764 663.739 850.968 663.044 836.894 654.32L676.237 554.693C661.179 545.356 652.995 528.134 655.196 510.522L676.589 339.405C678.121 327.145 685.402 316.343 696.547 310.033L624 338Z" fill="#0F9D8D" opacity="0.16"/>
  <path d="M698 288L860 196C872.529 188.884 887.835 188.194 900.96 194.136L1088.79 279.144C1103.11 285.63 1112 299.815 1111 315.477L1099.6 493.858C1098.74 507.269 1090.73 519.233 1078.46 525.639L916.328 610.258C903.368 617.021 887.903 616.467 875.461 608.79L710.405 506.916C697.61 499.02 690.684 484.382 692.595 469.499L710.243 332.096C711.645 321.179 718.042 311.541 727.974 305.775L698 288Z" fill="#0F9D8D"/>
  <path d="M788 336L906 272L1020 324V420L902 484L788 432V336Z" fill="#E8FFFB" stroke="#17324D" stroke-width="12" stroke-linejoin="round"/>
  <path d="M906 272V484" stroke="#17324D" stroke-width="12" stroke-linecap="round"/>
  <path d="M788 336L906 392L1020 324" stroke="#17324D" stroke-width="12" stroke-linecap="round" stroke-linejoin="round"/>
  <path d="M696 120H1132" stroke="#17324D" stroke-width="12" stroke-linecap="round"/>
  <path d="M696 160H1044" stroke="#4C7CBF" stroke-width="12" stroke-linecap="round"/>
  <text x="696" y="236" fill="#17324D" font-family="Segoe UI, Arial, sans-serif" font-size="56" font-weight="700">Evidence-based</text>
  <text x="696" y="304" fill="#17324D" font-family="Segoe UI, Arial, sans-serif" font-size="56" font-weight="700">GitHub Release Notes</text>
  <text x="696" y="382" fill="#4C5F7B" font-family="Segoe UI, Arial, sans-serif" font-size="28" font-weight="500">Inspect tags, diff the real implementation, and publish</text>
  <text x="696" y="422" fill="#4C5F7B" font-family="Segoe UI, Arial, sans-serif" font-size="28" font-weight="500">release bodies that reflect what actually shipped.</text>
</svg>
